<svg xmlns="http://www.w3.org/2000/svg" viewBox="0 0 100 100" fill="none">
  <!-- Large medical waveform pattern representing VEXUS Doppler signals -->
  <path d="M2 50 L10 50 L14 25 L20 75 L26 15 L32 85 L38 20 L44 80 L50 30 L56 70 L62 35 L68 65 L74 25 L80 75 L86 20 L92 80 L98 50" 
        stroke="#453E3E" 
        stroke-width="4" 
        stroke-linecap="round" 
        stroke-linejoin="round" 
        fill="none"/>
  
  <!-- Subtle grid lines for medical monitor appearance -->
  <defs>
    <pattern id="grid" width="10" height="10" patternUnits="userSpaceOnUse">
      <path d="M 10 0 L 0 0 0 10" fill="none" stroke="#453E3E" stroke-width="0.3" opacity="0.15"/>
    </pattern>
  </defs>
  <rect width="100" height="100" fill="url(#grid)" opacity="0.2"/>
  
  <!-- Secondary waveform with slight glow effect -->
  <path d="M2 50 L10 50 L14 25 L20 75 L26 15 L32 85 L38 20 L44 80 L50 30 L56 70 L62 35 L68 65 L74 25 L80 75 L86 20 L92 80 L98 50" 
        stroke="#453E3E" 
        stroke-width="5" 
        stroke-linecap="round" 
        stroke-linejoin="round" 
        fill="none"
        opacity="0.6"/>
</svg>
