<svg xmlns="http://www.w3.org/2000/svg" width="180" height="180" viewBox="0 0 180 180">
  <rect width="180" height="180" fill="#f7d0a6"/>
  <g transform="translate(90 120)" fill="#3c31ff">
    <rect x="-60" y="20" width="120" height="18" rx="4"/>
    <rect x="-18" y="-40" width="36" height="60" rx="4"/>
    <path d="M0 -60 L18 -12 A18 18 0 0 1 6 -6 L0 -24 L-6 -6 A18 18 0 0 1 -18 -12 Z"/>
    <path d="M0 -60 L-18 -12 A18 18 0 0 0 -6 -6 L0 -24 L6 -6 A18 18 0 0 0 18 -12 Z"/>
    <path d="M0 -60 L36 -6 A18 18 0 0 1 24 0 L0 -24 L-24 0 A18 18 0 0 1 -36 -6 Z"/>
    <path d="M0 -60 L54 -6 A18 18 0 0 1 42 6 L0 -24 L-42 6 A18 18 0 0 1 -54 -6 Z"/>
  </g>
</svg>
