<svg xmlns="http://www.w3.org/2000/svg" viewBox="0 0 100 100" width="100" height="100">
  <!-- Microscope Icon -->
  <g fill="#453E3E">
    <!-- Base - larger -->
    <rect x="15" y="80" width="70" height="12" rx="3" ry="3"/>
    
    <!-- Stand/Column - larger -->
    <rect x="42" y="30" width="8" height="50"/>
    
    <!-- Eyepiece - larger -->
    <circle cx="46" cy="20" r="12"/>
    <circle cx="46" cy="20" r="6" fill="white"/>
    
    <!-- Objective lens housing - larger -->
    <rect x="35" y="55" width="22" height="15" rx="3" ry="3"/>
    
    <!-- Stage - larger -->
    <rect x="30" y="70" width="32" height="6" rx="2" ry="2"/>
    
    <!-- Focus knobs - larger -->
    <circle cx="65" cy="45" r="4"/>
    <circle cx="65" cy="55" r="4"/>
    
    <!-- Light source - larger -->
    <rect x="20" y="72" width="12" height="8" rx="2" ry="2"/>
    
    <!-- Waveform pattern (representing analysis) - more prominent -->
    <g stroke="#453E3E" stroke-width="2" fill="none">
      <path d="M10 8 Q18 3 25 8 T40 8 Q48 15 55 8 T70 8 Q78 3 85 8 T95 8"/>
    </g>
    
    <!-- Sample on stage - larger -->
    <rect x="42" y="68" width="8" height="3" fill="white"/>
    
    <!-- Additional microscope details -->
    <rect x="38" y="40" width="16" height="3" rx="1" ry="1"/>
    <circle cx="68" cy="35" r="2"/>
  </g>
</svg> 